<?xml version="1.0" standalone="no"?>
<!DOCTYPE svg PUBLIC "-//W3C//DTD SVG 20010904//EN"
 "http://www.w3.org/TR/2001/REC-SVG-20010904/DTD/svg10.dtd">
        <svg xmlns="http://www.w3.org/2000/svg" viewBox="0 0 418.3 521.5">
            <path d="M218.913.7055C197.563 3.1055 179.363 8.5555 160.413 18.1555 121.213 38.0055 92.113 72.4555 78.063 115.6055 76.613 120.0555 75.213 124.5055 74.963 125.4555 74.613 126.7555 73.913 127.5555 72.063 128.7055 57.963 137.5555 49.763 144.1055 40.263 154.2555 32.163 162.9055 25.013 173.2055 19.263 184.4555 18.063 186.8055 16.513 189.6055 15.763 190.7055 13.613 193.8555 9.013 202.7555 7.013 207.7055-2.687 231.2555-2.187 254.7055 8.563 278.4055 17.063 297.0055 34.813 312.6555 61.113 324.7055 65.213 326.5555 68.663 328.3555 68.913 328.6555 69.663 329.7555 68.963 336.7555 67.563 341.7055 66.363 346.1055 66.163 347.5555 66.163 353.8055 66.163 363.3055 67.763 371.7555 70.813 378.1555 72.163 381.1055 78.513 387.9055 82.263 390.4555 83.813 391.5055 86.663 393.2055 88.563 394.2055 92.713 396.4555 94.163 397.7555 97.013 401.7055 99.863 405.6555 100.863 408.2555 100.663 411.2555L100.513 413.7055 98.063 410.2055C94.313 405.0055 89.013 399.7055 84.263 396.4055 78.113 392.2055 75.263 389.5555 69.713 382.8055 63.763 375.6555 63.313 374.5055 64.263 369.0555 65.313 362.8055 65.413 361.4055 64.813 360.8055 64.463 360.4555 64.213 360.5555 64.013 361.2555 63.813 361.7555 63.213 363.3055 62.613 364.6555 61.713 366.6555 61.513 368.1055 61.513 371.9055 61.513 376.4555 61.613 376.9055 63.363 380.3055 65.613 384.6055 68.763 388.6055 73.213 392.8055 76.663 396.0555 76.563 396.4055 72.563 395.2055 69.463 394.2555 66.263 394.2555 65.013 395.1555 64.063 395.8555 64.063 395.9055 65.263 396.3555 65.963 396.6055 67.813 397.0555 69.413 397.3555 74.563 398.3055 80.063 401.7055 85.213 406.9555 89.813 411.7055 97.613 422.9555 96.313 422.9555 96.013 422.9555 94.213 421.5055 92.263 419.8055 87.513 415.5055 83.963 413.7555 79.863 413.7555 77.113 413.7055 76.563 413.8555 75.713 414.9055 74.463 416.4055 74.463 417.7055 75.613 417.2055 76.113 417.0055 77.663 416.7055 79.113 416.6055 83.313 416.2055 86.663 418.2555 91.863 424.4555 97.113 430.7055 99.763 436.2055 103.963 449.3555 108.563 463.9055 114.913 472.1055 130.763 484.1555 158.063 504.9555 189.863 517.7555 222.213 520.9555 230.013 521.7055 253.813 521.5555 262.013 520.7055 294.913 517.2055 324.113 505.3555 349.513 485.1555 356.363 479.7055 369.963 466.1555 376.563 458.2055 398.663 431.5055 411.813 403.6555 417.113 372.4555 417.913 367.5555 418.013 360.0555 418.163 265.4555 418.263 192.4555 418.163 161.9555 417.763 157.4555 414.663 123.5055 400.113 90.4555 374.813 60.2055 370.363 54.8555 359.513 43.9555 354.263 39.4555 330.013 18.8555 300.563 5.8055 267.763 1.1555 259.763.0055 227.563-.2945 218.913.7055ZM266.013 11.1555C301.413 16.2555 331.863 30.9555 356.463 54.9055 384.913 82.6555 401.513 118.6555 404.263 158.5055 404.663 164.3055 404.763 196.2055 404.663 267.7055 404.413 378.4055 404.613 371.2555 401.463 386.9555 390.413 442.2555 350.213 487.9555 296.763 506.0555 287.113 509.3055 276.913 511.7055 265.713 513.3055 256.713 514.5555 224.313 514.5555 215.313 513.3055 177.413 507.8555 146.463 492.2055 119.913 464.9555 115.363 460.3055 113.063 456.3055 112.163 451.5055 111.513 447.8555 111.963 434.6055 112.963 428.5555 115.313 414.8555 124.263 398.9555 137.563 384.9555 153.413 368.2055 157.513 362.2555 161.513 350.3055 163.363 344.7055 165.513 334.7055 166.063 329.1555 166.363 325.9555 166.263 325.5055 165.463 325.0555 164.413 324.4555 164.313 325.0055 167.063 318.4555 168.363 315.3055 169.063 312.2555 171.213 299.6055 171.813 296.2055 173.063 291.1555 174.013 288.3555 175.863 282.9055 176.113 281.2555 175.213 280.6555 174.363 280.1555 173.063 281.9055 171.513 285.7055 167.213 296.4055 162.963 301.9055 151.263 312.0055 146.463 316.1555 145.813 316.8555 141.863 321.6555 139.063 325.1555 137.963 325.4555 139.563 322.3555 141.113 319.2555 143.313 316.7055 153.663 305.6555 159.963 298.9055 163.663 294.3555 167.013 289.4055 177.413 273.9055 181.213 254.2055 177.963 232.3555 177.563 229.6555 177.263 224.4055 177.263 220.7055 177.263 214.1555 176.913 212.8055 175.813 214.8555 174.813 216.7055 174.663 226.5055 175.463 234.0555 177.463 252.6055 175.363 267.1055 168.713 280.6055 164.463 289.2555 161.013 293.9555 148.863 307.3555 137.413 320.0055 133.413 326.6555 132.213 334.7055 132.013 336.3555 131.663 338.6555 131.463 339.8555 131.213 341.5555 131.263 341.9555 131.913 341.9555 132.463 341.9555 133.813 339.8555 135.713 336.1055 141.613 324.5555 145.113 319.9555 153.013 313.5555 156.063 311.1055 160.313 307.2055 162.413 304.9555 164.613 302.6055 166.513 301.0055 166.713 301.2555 167.213 301.7555 165.213 315.2555 164.263 318.2555 163.313 321.1555 159.913 327.8055 157.613 331.2055 156.513 332.8555 153.313 337.0055 150.513 340.4555 144.063 348.4055 143.463 349.3555 144.163 350.0555 144.813 350.7055 148.463 347.2055 156.913 337.9555 160.013 334.5555 161.413 333.4055 161.763 333.7555 162.863 334.8555 159.313 349.0555 156.213 355.9055 153.313 362.3055 145.363 373.1055 136.513 382.7055 123.613 396.6555 118.963 403.5555 113.563 416.8555 111.513 421.8555 110.713 424.3055 109.513 429.7055 108.763 433.0055 108.163 429.1555 107.713 418.5555 107.463 412.6055 107.013 406.5055 106.763 405.0055 105.113 396.0555 107.513 374.4555 112.513 352.7055 116.913 333.7555 121.763 318.4555 128.113 303.8055 133.213 291.9555 133.663 291.1555 151.213 263.8055 164.213 243.5555 172.313 229.0555 172.463 225.8555 172.563 223.4055 171.013 223.3555 170.263 225.8055 168.413 231.5055 163.863 239.0555 146.263 265.7055 131.063 288.7555 129.213 291.7055 124.463 300.6555 111.613 324.6555 104.613 348.8555 102.713 375.9555 102.413 380.5055 101.963 384.4055 101.663 384.7055 100.913 385.5055 100.013 383.9055 92.663 369.3555 83.713 351.7055 82.013 345.7555 81.413 330.9555 80.863 316.8055 83.263 304.0055 88.363 293.7555 89.463 291.6055 91.113 287.9055 92.063 285.6055 96.213 275.2055 97.113 274.0055 98.663 276.5055 99.063 277.1555 99.713 277.4555 100.413 277.3555 101.563 277.2055 101.663 277.0055 103.463 270.4555 106.913 258.1055 132.063 230.3055 145.963 223.5055 149.213 221.9055 151.113 221.3555 155.513 220.7055 162.563 219.7055 165.663 218.8055 169.963 216.5555 174.363 214.2555 179.063 210.0055 178.613 208.7555 178.213 207.7055 177.113 208.2055 173.763 211.0055 169.663 214.4055 164.363 216.5055 157.513 217.4555 151.763 218.2555 147.913 219.6555 143.013 222.7055 133.963 228.4055 116.763 243.8555 111.663 250.8055 106.613 257.8055 106.263 258.3055 102.813 265.3555 100.263 270.5555 99.263 271.3055 99.263 268.2055 99.263 266.6055 98.063 265.4555 97.213 266.3055 96.313 267.3055 85.563 292.5055 80.263 306.2055 77.963 312.1055 77.413 313.1055 76.713 312.6555 76.063 312.2555 76.113 164.7555 76.763 156.6555 77.413 148.8555 78.863 139.6055 80.563 132.3555 82.063 126.0055 81.563 126.5555 91.213 121.7055 100.613 117.0055 104.263 116.2055 117.763 116.2555 126.213 116.2555 129.013 116.4555 133.763 117.3555 153.163 121.0055 166.563 127.7555 179.013 140.2055 199.163 160.3055 213.263 192.2055 222.213 237.9555 225.513 255.0055 227.863 271.7555 231.013 301.2055 233.563 324.8555 237.913 354.4555 240.563 366.4555 244.563 384.3055 250.113 397.6055 255.563 402.3555 263.863 409.7055 275.213 402.2055 288.813 380.3555 294.163 371.8055 305.413 349.5055 310.763 336.8055 313.063 331.3555 315.213 326.7055 315.513 326.4555 315.913 326.1055 317.763 327.1555 321.313 329.7055 333.313 338.2555 351.113 346.2055 374.013 353.1055 387.213 357.1055 388.263 357.3055 389.113 356.1555 390.363 354.4055 390.263 354.3555 381.513 351.6555 368.713 347.7555 339.863 334.7555 331.463 329.1055 326.963 326.0555 319.663 318.9555 319.013 317.0055 318.813 316.3555 319.113 314.8055 319.763 313.0555 331.863 281.2555 350.863 225.6055 350.963 221.7555 351.013 220.1055 350.763 219.6555 349.663 219.0055 347.963 218.0555 347.713 218.2055 340.063 223.9555 331.213 230.6055 328.963 232.5555 320.413 241.2055 308.863 252.8555 302.063 262.4555 297.863 273.2055 295.013 280.5055 294.163 291.6555 295.963 298.7055 297.613 305.1555 301.913 312.4055 307.563 318.4055 309.313 320.3055 310.763 322.2055 310.763 322.7055 310.763 323.8555 303.913 340.2555 298.413 352.4555 288.063 375.2555 278.813 389.1055 271.263 392.9555 264.613 396.3555 259.663 391.5055 255.313 377.3555 250.513 361.7055 247.613 335.0055 245.763 289.6055 243.563 234.9055 235.563 195.0555 221.013 166.5055 209.563 143.9555 193.863 126.5055 177.413 118.0555 157.163 107.6555 130.213 106.1055 106.763 113.9555 96.613 117.3555 91.113 119.3055 87.613 120.7055 85.763 121.4555 84.063 121.9555 83.913 121.7555 83.463 121.3055 84.913 116.7555 88.113 108.9555 102.063 74.4055 128.113 45.6055 161.013 28.4055 181.263 17.8055 199.013 12.7055 224.013 10.2555 225.113 10.1555 233.763 10.1555 243.263 10.2055 255.563 10.3555 262.113 10.6055 266.013 11.1555ZM72.763 134.0555C72.763 134.4055 72.413 136.4555 72.013 138.6055 69.513 151.7555 69.613 148.4055 69.313 238.9555 69.013 317.2555 68.963 323.7055 68.163 323.8555 66.763 324.1055 52.313 316.5555 45.013 311.7055 41.163 309.1055 36.163 305.4555 33.963 303.5555 20.713 292.1555 11.763 276.6055 7.663 257.9055 6.663 253.3055 6.513 251.3055 6.513 240.9555 6.513 230.7055 6.663 228.5055 7.663 223.6055 9.913 212.4555 15.213 195.9055 18.813 188.9055 21.113 184.3555 30.113 172.8555 38.563 163.7055 49.163 152.1555 57.763 144.0055 66.413 137.2555 71.213 133.5555 72.763 132.8055 72.763 134.0555ZM344.263 228.5555C344.263 229.5555 343.213 232.6055 337.513 248.9555 334.563 257.3555 330.763 268.2555 329.013 273.2055 321.263 295.4055 316.163 309.2555 315.563 309.8555 315.013 310.4555 314.713 310.3555 313.863 309.4555 312.263 307.7555 309.513 302.1055 308.313 298.2555 306.363 291.8555 307.063 281.3555 310.063 272.3055 313.913 260.7055 325.363 243.5555 335.513 234.0055 341.063 228.8555 344.263 226.8555 344.263 228.5555ZM77.913 333.0555C78.113 340.1555 78.463 344.9555 79.013 347.4055 80.863 355.7555 84.463 363.2555 92.163 374.9555 100.013 386.7555 103.563 395.9055 103.163 403.2055L103.013 406.2055 101.713 403.4055C99.813 399.3555 97.613 397.1555 90.113 391.9055 86.513 389.3555 82.113 385.8555 80.463 384.1055 73.613 377.1055 69.663 365.4555 69.613 351.9555 69.613 345.3055 70.663 339.8055 73.863 330.2555 76.063 323.7055 76.563 322.4555 77.213 322.4555 77.463 322.4555 77.763 327.2555 77.913 333.0555ZM94.913 411.5555C97.113 414.4555 100.463 421.9555 99.313 421.2055 98.813 420.9555 95.413 415.2055 93.813 412.0555 92.563 409.5555 93.213 409.2555 94.913 411.5555Z"  />
        </svg>
